<svg width="1920" height="90" viewBox="0 0 1920 90" fill="none" xmlns="http://www.w3.org/2000/svg">
<rect width="1920" height="90" fill="#12372A"/>
<path d="M1524.91 56V44.3636H1528.84C1529.75 44.3636 1530.5 44.5284 1531.08 44.858C1531.66 45.1837 1532.09 45.625 1532.38 46.1818C1532.66 46.7386 1532.8 47.3598 1532.8 48.0455C1532.8 48.7311 1532.66 49.3542 1532.38 49.9148C1532.1 50.4754 1531.67 50.9223 1531.09 51.2557C1530.51 51.5852 1529.77 51.75 1528.86 51.75H1526.05V50.5H1528.82C1529.44 50.5 1529.95 50.392 1530.32 50.1761C1530.7 49.9602 1530.98 49.6686 1531.15 49.3011C1531.32 48.9299 1531.41 48.5114 1531.41 48.0455C1531.41 47.5795 1531.32 47.1629 1531.15 46.7955C1530.98 46.428 1530.7 46.1402 1530.32 45.9318C1529.94 45.7197 1529.43 45.6136 1528.8 45.6136H1526.32V56H1524.91ZM1534.88 56V47.2727H1536.18V48.5909H1536.27C1536.43 48.1591 1536.72 47.8087 1537.13 47.5398C1537.55 47.2708 1538.02 47.1364 1538.54 47.1364C1538.64 47.1364 1538.76 47.1383 1538.91 47.142C1539.06 47.1458 1539.17 47.1515 1539.25 47.1591V48.5227C1539.2 48.5114 1539.1 48.4943 1538.93 48.4716C1538.78 48.4451 1538.61 48.4318 1538.43 48.4318C1538 48.4318 1537.63 48.5208 1537.29 48.6989C1536.96 48.8731 1536.7 49.1155 1536.51 49.4261C1536.32 49.733 1536.22 50.0833 1536.22 50.4773V56H1534.88ZM1540.84 56V47.2727H1542.18V56H1540.84ZM1541.52 45.8182C1541.26 45.8182 1541.03 45.7292 1540.84 45.5511C1540.66 45.3731 1540.56 45.1591 1540.56 44.9091C1540.56 44.6591 1540.66 44.4451 1540.84 44.267C1541.03 44.089 1541.26 44 1541.52 44C1541.78 44 1542 44.089 1542.19 44.267C1542.38 44.4451 1542.47 44.6591 1542.47 44.9091C1542.47 45.1591 1542.38 45.3731 1542.19 45.5511C1542 45.7292 1541.78 45.8182 1541.52 45.8182ZM1551.77 47.2727L1548.54 56H1547.18L1543.95 47.2727H1545.41L1547.82 54.2273H1547.91L1550.32 47.2727H1551.77ZM1555.84 56.2045C1555.29 56.2045 1554.79 56.1004 1554.34 55.892C1553.89 55.6799 1553.53 55.375 1553.26 54.9773C1553 54.5758 1552.87 54.0909 1552.87 53.5227C1552.87 53.0227 1552.96 52.6174 1553.16 52.3068C1553.36 51.9924 1553.62 51.7462 1553.95 51.5682C1554.28 51.3902 1554.64 51.2576 1555.04 51.1705C1555.44 51.0795 1555.85 51.0076 1556.25 50.9545C1556.78 50.8864 1557.21 50.8352 1557.54 50.8011C1557.87 50.7633 1558.12 50.7008 1558.27 50.6136C1558.42 50.5265 1558.5 50.375 1558.5 50.1591V50.1136C1558.5 49.553 1558.35 49.1174 1558.04 48.8068C1557.74 48.4962 1557.28 48.3409 1556.66 48.3409C1556.02 48.3409 1555.52 48.4811 1555.15 48.7614C1554.79 49.0417 1554.54 49.3409 1554.39 49.6591L1553.12 49.2045C1553.34 48.6742 1553.65 48.2614 1554.02 47.9659C1554.41 47.6667 1554.82 47.4583 1555.27 47.3409C1555.73 47.2197 1556.18 47.1591 1556.62 47.1591C1556.9 47.1591 1557.22 47.1932 1557.58 47.2614C1557.95 47.3258 1558.3 47.4602 1558.64 47.6648C1558.99 47.8693 1559.27 48.178 1559.5 48.5909C1559.73 49.0038 1559.84 49.5568 1559.84 50.25V56H1558.5V54.8182H1558.43C1558.34 55.0076 1558.19 55.2102 1557.98 55.4261C1557.77 55.642 1557.48 55.8258 1557.13 55.9773C1556.78 56.1288 1556.35 56.2045 1555.84 56.2045ZM1556.05 55C1556.58 55 1557.02 54.8958 1557.39 54.6875C1557.76 54.4792 1558.03 54.2102 1558.22 53.8807C1558.41 53.5511 1558.5 53.2045 1558.5 52.8409V51.6136C1558.44 51.6818 1558.32 51.7443 1558.13 51.8011C1557.94 51.8542 1557.72 51.9015 1557.47 51.9432C1557.22 51.9811 1556.98 52.0152 1556.75 52.0455C1556.51 52.072 1556.33 52.0947 1556.18 52.1136C1555.83 52.1591 1555.51 52.233 1555.21 52.3352C1554.91 52.4337 1554.66 52.5833 1554.48 52.7841C1554.3 52.9811 1554.21 53.25 1554.21 53.5909C1554.21 54.0568 1554.38 54.4091 1554.72 54.6477C1555.07 54.8826 1555.51 55 1556.05 55ZM1565.84 56.1818C1565.02 56.1818 1564.31 55.9886 1563.72 55.6023C1563.13 55.2159 1562.68 54.6837 1562.36 54.0057C1562.04 53.3277 1561.88 52.553 1561.88 51.6818C1561.88 50.7955 1562.04 50.0133 1562.37 49.3352C1562.7 48.6534 1563.16 48.1212 1563.74 47.7386C1564.34 47.3523 1565.02 47.1591 1565.81 47.1591C1566.43 47.1591 1566.98 47.2727 1567.47 47.5C1567.96 47.7273 1568.37 48.0455 1568.68 48.4545C1569 48.8636 1569.19 49.3409 1569.27 49.8864H1567.93C1567.82 49.4886 1567.6 49.1364 1567.24 48.8295C1566.9 48.5189 1566.43 48.3636 1565.84 48.3636C1565.31 48.3636 1564.85 48.5 1564.46 48.7727C1564.07 49.0417 1563.77 49.4223 1563.55 49.9148C1563.33 50.4034 1563.22 50.9773 1563.22 51.6364C1563.22 52.3106 1563.33 52.8977 1563.54 53.3977C1563.76 53.8977 1564.06 54.286 1564.45 54.5625C1564.84 54.839 1565.3 54.9773 1565.84 54.9773C1566.18 54.9773 1566.5 54.9167 1566.78 54.7955C1567.07 54.6742 1567.31 54.5 1567.51 54.2727C1567.7 54.0455 1567.84 53.7727 1567.93 53.4545H1569.27C1569.19 53.9697 1569 54.4337 1568.7 54.8466C1568.41 55.2557 1568.02 55.5814 1567.53 55.8239C1567.04 56.0625 1566.48 56.1818 1565.84 56.1818ZM1572.09 59.2727C1571.86 59.2727 1571.66 59.2538 1571.48 59.2159C1571.3 59.1818 1571.18 59.1477 1571.11 59.1136L1571.45 57.9318C1571.78 58.0152 1572.07 58.0455 1572.32 58.0227C1572.57 58 1572.79 57.8883 1572.98 57.6875C1573.18 57.4905 1573.36 57.1705 1573.52 56.7273L1573.77 56.0455L1570.55 47.2727H1572L1574.41 54.2273H1574.5L1576.91 47.2727H1578.36L1574.66 57.2727C1574.49 57.7235 1574.29 58.0966 1574.04 58.392C1573.79 58.6913 1573.51 58.9129 1573.18 59.0568C1572.86 59.2008 1572.5 59.2727 1572.09 59.2727ZM1584.82 56V44.3636H1588.75C1589.66 44.3636 1590.41 44.5284 1590.99 44.858C1591.57 45.1837 1592 45.625 1592.28 46.1818C1592.56 46.7386 1592.7 47.3598 1592.7 48.0455C1592.7 48.7311 1592.56 49.3542 1592.28 49.9148C1592 50.4754 1591.58 50.9223 1591 51.2557C1590.42 51.5852 1589.68 51.75 1588.77 51.75H1585.95V50.5H1588.72C1589.35 50.5 1589.85 50.392 1590.23 50.1761C1590.61 49.9602 1590.88 49.6686 1591.05 49.3011C1591.23 48.9299 1591.32 48.5114 1591.32 48.0455C1591.32 47.5795 1591.23 47.1629 1591.05 46.7955C1590.88 46.428 1590.61 46.1402 1590.22 45.9318C1589.84 45.7197 1589.33 45.6136 1588.7 45.6136H1586.22V56H1584.82ZM1598.24 56.1818C1597.45 56.1818 1596.76 55.9943 1596.17 55.6193C1595.58 55.2443 1595.11 54.7197 1594.78 54.0455C1594.45 53.3712 1594.29 52.5833 1594.29 51.6818C1594.29 50.7727 1594.45 49.9792 1594.78 49.3011C1595.11 48.6231 1595.58 48.0966 1596.17 47.7216C1596.76 47.3466 1597.45 47.1591 1598.24 47.1591C1599.03 47.1591 1599.72 47.3466 1600.31 47.7216C1600.9 48.0966 1601.37 48.6231 1601.7 49.3011C1602.03 49.9792 1602.2 50.7727 1602.2 51.6818C1602.2 52.5833 1602.03 53.3712 1601.7 54.0455C1601.37 54.7197 1600.9 55.2443 1600.31 55.6193C1599.72 55.9943 1599.03 56.1818 1598.24 56.1818ZM1598.24 54.9773C1598.84 54.9773 1599.33 54.8239 1599.72 54.517C1600.11 54.2102 1600.39 53.8068 1600.58 53.3068C1600.76 52.8068 1600.86 52.2652 1600.86 51.6818C1600.86 51.0985 1600.76 50.5549 1600.58 50.0511C1600.39 49.5473 1600.11 49.1402 1599.72 48.8295C1599.33 48.5189 1598.84 48.3636 1598.24 48.3636C1597.64 48.3636 1597.15 48.5189 1596.76 48.8295C1596.38 49.1402 1596.09 49.5473 1595.91 50.0511C1595.72 50.5549 1595.63 51.0985 1595.63 51.6818C1595.63 52.2652 1595.72 52.8068 1595.91 53.3068C1596.09 53.8068 1596.38 54.2102 1596.76 54.517C1597.15 54.8239 1597.64 54.9773 1598.24 54.9773ZM1605.58 44.3636V56H1604.24V44.3636H1605.58ZM1608.04 56V47.2727H1609.38V56H1608.04ZM1608.72 45.8182C1608.46 45.8182 1608.23 45.7292 1608.05 45.5511C1607.86 45.3731 1607.77 45.1591 1607.77 44.9091C1607.77 44.6591 1607.86 44.4451 1608.05 44.267C1608.23 44.089 1608.46 44 1608.72 44C1608.98 44 1609.21 44.089 1609.39 44.267C1609.58 44.4451 1609.68 44.6591 1609.68 44.9091C1609.68 45.1591 1609.58 45.3731 1609.39 45.5511C1609.21 45.7292 1608.98 45.8182 1608.72 45.8182ZM1615.38 56.1818C1614.56 56.1818 1613.86 55.9886 1613.27 55.6023C1612.68 55.2159 1612.22 54.6837 1611.9 54.0057C1611.59 53.3277 1611.43 52.553 1611.43 51.6818C1611.43 50.7955 1611.59 50.0133 1611.92 49.3352C1612.25 48.6534 1612.7 48.1212 1613.29 47.7386C1613.88 47.3523 1614.57 47.1591 1615.36 47.1591C1615.97 47.1591 1616.53 47.2727 1617.02 47.5C1617.51 47.7273 1617.91 48.0455 1618.23 48.4545C1618.54 48.8636 1618.74 49.3409 1618.81 49.8864H1617.47C1617.37 49.4886 1617.14 49.1364 1616.79 48.8295C1616.44 48.5189 1615.97 48.3636 1615.38 48.3636C1614.86 48.3636 1614.4 48.5 1614.01 48.7727C1613.62 49.0417 1613.31 49.4223 1613.09 49.9148C1612.88 50.4034 1612.77 50.9773 1612.77 51.6364C1612.77 52.3106 1612.87 52.8977 1613.09 53.3977C1613.3 53.8977 1613.61 54.286 1614 54.5625C1614.39 54.839 1614.85 54.9773 1615.38 54.9773C1615.73 54.9773 1616.05 54.9167 1616.33 54.7955C1616.62 54.6742 1616.86 54.5 1617.05 54.2727C1617.25 54.0455 1617.39 53.7727 1617.47 53.4545H1618.81C1618.74 53.9697 1618.55 54.4337 1618.25 54.8466C1617.96 55.2557 1617.56 55.5814 1617.08 55.8239C1616.59 56.0625 1616.03 56.1818 1615.38 56.1818ZM1621.64 59.2727C1621.41 59.2727 1621.21 59.2538 1621.03 59.2159C1620.85 59.1818 1620.73 59.1477 1620.66 59.1136L1621 57.9318C1621.33 58.0152 1621.62 58.0455 1621.87 58.0227C1622.12 58 1622.34 57.8883 1622.53 57.6875C1622.73 57.4905 1622.91 57.1705 1623.07 56.7273L1623.32 56.0455L1620.09 47.2727H1621.55L1623.96 54.2273H1624.05L1626.46 47.2727H1627.91L1624.21 57.2727C1624.04 57.7235 1623.83 58.0966 1623.59 58.392C1623.34 58.6913 1623.05 58.9129 1622.73 59.0568C1622.41 59.2008 1622.04 59.2727 1621.64 59.2727Z" fill="white"/>
<circle cx="1506.5" cy="49.5" r="7.5" fill="white"/>
<path fill-rule="evenodd" clip-rule="evenodd" d="M1509.1 49.9443L1505.56 53.4799L1504.68 52.5962L1507.77 49.5024L1504.68 46.4087L1505.56 45.5249L1509.1 49.0605C1509.22 49.1777 1509.28 49.3367 1509.28 49.5024C1509.28 49.6681 1509.22 49.8271 1509.1 49.9443Z" fill="#12372A"/>
<path d="M1301.77 45.6136V44.3636H1310.5V45.6136H1306.84V56H1305.43V45.6136H1301.77ZM1314.89 56.1818C1314.05 56.1818 1313.32 55.9962 1312.71 55.625C1312.1 55.25 1311.64 54.7273 1311.31 54.0568C1310.98 53.3826 1310.82 52.5985 1310.82 51.7045C1310.82 50.8106 1310.98 50.0227 1311.31 49.3409C1311.64 48.6553 1312.09 48.1212 1312.68 47.7386C1313.27 47.3523 1313.96 47.1591 1314.75 47.1591C1315.2 47.1591 1315.65 47.2348 1316.1 47.3864C1316.54 47.5379 1316.94 47.7841 1317.31 48.125C1317.67 48.4621 1317.96 48.9091 1318.18 49.4659C1318.39 50.0227 1318.5 50.7083 1318.5 51.5227V52.0909H1311.77V50.9318H1317.14C1317.14 50.4394 1317.04 50 1316.84 49.6136C1316.65 49.2273 1316.37 48.9223 1316.01 48.6989C1315.66 48.4754 1315.23 48.3636 1314.75 48.3636C1314.22 48.3636 1313.75 48.4962 1313.36 48.7614C1312.98 49.0227 1312.68 49.3636 1312.47 49.7841C1312.26 50.2045 1312.16 50.6553 1312.16 51.1364V51.9091C1312.16 52.5682 1312.27 53.1269 1312.5 53.5852C1312.73 54.0398 1313.05 54.3864 1313.46 54.625C1313.87 54.8598 1314.34 54.9773 1314.89 54.9773C1315.24 54.9773 1315.56 54.928 1315.84 54.8295C1316.13 54.7273 1316.38 54.5758 1316.59 54.375C1316.79 54.1705 1316.95 53.9167 1317.07 53.6136L1318.36 53.9773C1318.23 54.4167 1318 54.803 1317.68 55.1364C1317.35 55.4659 1316.96 55.7235 1316.48 55.9091C1316.01 56.0909 1315.48 56.1818 1314.89 56.1818ZM1320.54 56V47.2727H1321.84V48.5909H1321.93C1322.09 48.1591 1322.37 47.8087 1322.79 47.5398C1323.21 47.2708 1323.68 47.1364 1324.2 47.1364C1324.3 47.1364 1324.42 47.1383 1324.57 47.142C1324.72 47.1458 1324.83 47.1515 1324.9 47.1591V48.5227C1324.86 48.5114 1324.75 48.4943 1324.59 48.4716C1324.43 48.4451 1324.26 48.4318 1324.09 48.4318C1323.66 48.4318 1323.28 48.5208 1322.95 48.6989C1322.62 48.8731 1322.36 49.1155 1322.16 49.4261C1321.98 49.733 1321.88 50.0833 1321.88 50.4773V56H1320.54ZM1326.49 56V47.2727H1327.79V48.6364H1327.9C1328.08 48.1705 1328.38 47.8087 1328.78 47.5511C1329.19 47.2898 1329.67 47.1591 1330.24 47.1591C1330.82 47.1591 1331.3 47.2898 1331.68 47.5511C1332.07 47.8087 1332.37 48.1705 1332.58 48.6364H1332.67C1332.9 48.1856 1333.23 47.8277 1333.68 47.5625C1334.13 47.2936 1334.66 47.1591 1335.29 47.1591C1336.07 47.1591 1336.71 47.4034 1337.2 47.892C1337.7 48.3769 1337.95 49.1326 1337.95 50.1591V56H1336.61V50.1591C1336.61 49.5152 1336.43 49.0549 1336.08 48.7784C1335.73 48.5019 1335.31 48.3636 1334.83 48.3636C1334.22 48.3636 1333.74 48.5492 1333.41 48.9205C1333.07 49.2879 1332.9 49.7538 1332.9 50.3182V56H1331.54V50.0227C1331.54 49.5265 1331.38 49.1269 1331.06 48.8239C1330.73 48.517 1330.32 48.3636 1329.81 48.3636C1329.46 48.3636 1329.14 48.4564 1328.83 48.642C1328.53 48.8277 1328.29 49.0852 1328.11 49.4148C1327.92 49.7405 1327.83 50.1174 1327.83 50.5455V56H1326.49ZM1346.58 49.2273L1345.38 49.5682C1345.3 49.3674 1345.19 49.1723 1345.04 48.983C1344.9 48.7898 1344.7 48.6307 1344.45 48.5057C1344.2 48.3807 1343.88 48.3182 1343.49 48.3182C1342.96 48.3182 1342.51 48.4413 1342.15 48.6875C1341.8 48.9299 1341.63 49.2386 1341.63 49.6136C1341.63 49.947 1341.75 50.2102 1341.99 50.4034C1342.23 50.5966 1342.61 50.7576 1343.13 50.8864L1344.42 51.2045C1345.2 51.3939 1345.78 51.6837 1346.17 52.0739C1346.55 52.4602 1346.74 52.9583 1346.74 53.5682C1346.74 54.0682 1346.6 54.5152 1346.31 54.9091C1346.02 55.303 1345.63 55.6136 1345.12 55.8409C1344.6 56.0682 1344.01 56.1818 1343.33 56.1818C1342.44 56.1818 1341.7 55.9886 1341.12 55.6023C1340.54 55.2159 1340.17 54.6515 1340.01 53.9091L1341.29 53.5909C1341.41 54.0606 1341.64 54.4129 1341.97 54.6477C1342.31 54.8826 1342.76 55 1343.31 55C1343.93 55 1344.43 54.8674 1344.8 54.6023C1345.17 54.3333 1345.35 54.0114 1345.35 53.6364C1345.35 53.3333 1345.25 53.0795 1345.04 52.875C1344.82 52.6667 1344.5 52.5114 1344.06 52.4091L1342.6 52.0682C1341.8 51.8788 1341.22 51.5852 1340.84 51.1875C1340.47 50.786 1340.29 50.2841 1340.29 49.6818C1340.29 49.1894 1340.42 48.7538 1340.7 48.375C1340.98 47.9962 1341.36 47.6989 1341.84 47.483C1342.33 47.267 1342.88 47.1591 1343.49 47.1591C1344.35 47.1591 1345.03 47.3485 1345.52 47.7273C1346.02 48.1061 1346.37 48.6061 1346.58 49.2273ZM1356.55 56.1591C1355.79 56.1591 1355.13 56.0189 1354.58 55.7386C1354.02 55.4583 1353.6 55.0739 1353.3 54.5852C1353 54.0966 1352.85 53.5379 1352.85 52.9091C1352.85 52.4242 1352.95 51.9943 1353.16 51.6193C1353.36 51.2405 1353.65 50.8902 1354.01 50.5682C1354.38 50.2424 1354.8 49.9167 1355.28 49.5909L1356.96 48.3409C1357.29 48.125 1357.56 47.8939 1357.75 47.6477C1357.95 47.4015 1358.05 47.0795 1358.05 46.6818C1358.05 46.3864 1357.92 46.1004 1357.66 45.8239C1357.4 45.5473 1357.07 45.4091 1356.64 45.4091C1356.35 45.4091 1356.09 45.4848 1355.86 45.6364C1355.64 45.7841 1355.46 45.9735 1355.33 46.2045C1355.21 46.4318 1355.14 46.6667 1355.14 46.9091C1355.14 47.1818 1355.22 47.4583 1355.37 47.7386C1355.52 48.0152 1355.71 48.2992 1355.94 48.5909C1356.18 48.8788 1356.42 49.1742 1356.67 49.4773L1362.01 56H1360.39L1355.99 50.6818C1355.58 50.1894 1355.21 49.7424 1354.87 49.3409C1354.54 48.9394 1354.27 48.5436 1354.08 48.1534C1353.88 47.7633 1353.78 47.3409 1353.78 46.8864C1353.78 46.3636 1353.9 45.9053 1354.13 45.5114C1354.36 45.1136 1354.69 44.8049 1355.11 44.5852C1355.54 44.3617 1356.03 44.25 1356.6 44.25C1357.18 44.25 1357.68 44.3636 1358.11 44.5909C1358.53 44.8144 1358.85 45.1117 1359.08 45.483C1359.3 45.8504 1359.42 46.25 1359.42 46.6818C1359.42 47.2386 1359.28 47.7216 1359 48.1307C1358.73 48.5398 1358.35 48.9205 1357.87 49.2727L1355.55 51C1355.03 51.3864 1354.68 51.7614 1354.49 52.125C1354.31 52.4886 1354.21 52.75 1354.21 52.9091C1354.21 53.2727 1354.31 53.6117 1354.5 53.9261C1354.69 54.2405 1354.95 54.4943 1355.3 54.6875C1355.64 54.8807 1356.05 54.9773 1356.51 54.9773C1356.95 54.9773 1357.38 54.8845 1357.79 54.6989C1358.21 54.5095 1358.59 54.2367 1358.92 53.8807C1359.26 53.5246 1359.53 53.0966 1359.73 52.5966C1359.93 52.0966 1360.03 51.5341 1360.03 50.9091H1361.33C1361.33 51.6818 1361.24 52.3125 1361.06 52.8011C1360.88 53.2898 1360.68 53.6723 1360.46 53.9489C1360.23 54.2254 1360.05 54.4318 1359.92 54.5682C1359.87 54.625 1359.83 54.6818 1359.79 54.7386C1359.75 54.7955 1359.71 54.8523 1359.67 54.9091C1359.29 55.3295 1358.82 55.6439 1358.25 55.8523C1357.68 56.0568 1357.11 56.1591 1356.55 56.1591ZM1377.54 48H1376.13C1376.05 47.5947 1375.9 47.2386 1375.69 46.9318C1375.49 46.625 1375.24 46.3674 1374.94 46.1591C1374.65 45.947 1374.33 45.7879 1373.97 45.6818C1373.61 45.5758 1373.24 45.5227 1372.86 45.5227C1372.15 45.5227 1371.51 45.7008 1370.94 46.0568C1370.37 46.4129 1369.92 46.9375 1369.58 47.6307C1369.25 48.3239 1369.08 49.1742 1369.08 50.1818C1369.08 51.1894 1369.25 52.0398 1369.58 52.733C1369.92 53.4261 1370.37 53.9508 1370.94 54.3068C1371.51 54.6629 1372.15 54.8409 1372.86 54.8409C1373.24 54.8409 1373.61 54.7879 1373.97 54.6818C1374.33 54.5758 1374.65 54.4186 1374.94 54.2102C1375.24 53.9981 1375.49 53.7386 1375.69 53.4318C1375.9 53.1212 1376.05 52.7652 1376.13 52.3636H1377.54C1377.43 52.9583 1377.24 53.4905 1376.96 53.9602C1376.68 54.4299 1376.33 54.8295 1375.91 55.1591C1375.5 55.4848 1375.03 55.733 1374.51 55.9034C1373.99 56.0739 1373.44 56.1591 1372.86 56.1591C1371.86 56.1591 1370.98 55.9167 1370.21 55.4318C1369.44 54.947 1368.83 54.2576 1368.38 53.3636C1367.94 52.4697 1367.72 51.4091 1367.72 50.1818C1367.72 48.9545 1367.94 47.8939 1368.38 47C1368.83 46.1061 1369.44 45.4167 1370.21 44.9318C1370.98 44.447 1371.86 44.2045 1372.86 44.2045C1373.44 44.2045 1373.99 44.2898 1374.51 44.4602C1375.03 44.6307 1375.5 44.8807 1375.91 45.2102C1376.33 45.536 1376.68 45.9337 1376.96 46.4034C1377.24 46.8693 1377.43 47.4015 1377.54 48ZM1383.18 56.1818C1382.39 56.1818 1381.7 55.9943 1381.11 55.6193C1380.51 55.2443 1380.05 54.7197 1379.72 54.0455C1379.39 53.3712 1379.22 52.5833 1379.22 51.6818C1379.22 50.7727 1379.39 49.9792 1379.72 49.3011C1380.05 48.6231 1380.51 48.0966 1381.11 47.7216C1381.7 47.3466 1382.39 47.1591 1383.18 47.1591C1383.97 47.1591 1384.66 47.3466 1385.25 47.7216C1385.84 48.0966 1386.3 48.6231 1386.63 49.3011C1386.97 49.9792 1387.13 50.7727 1387.13 51.6818C1387.13 52.5833 1386.97 53.3712 1386.63 54.0455C1386.3 54.7197 1385.84 55.2443 1385.25 55.6193C1384.66 55.9943 1383.97 56.1818 1383.18 56.1818ZM1383.18 54.9773C1383.78 54.9773 1384.27 54.8239 1384.66 54.517C1385.04 54.2102 1385.33 53.8068 1385.51 53.3068C1385.7 52.8068 1385.79 52.2652 1385.79 51.6818C1385.79 51.0985 1385.7 50.5549 1385.51 50.0511C1385.33 49.5473 1385.04 49.1402 1384.66 48.8295C1384.27 48.5189 1383.78 48.3636 1383.18 48.3636C1382.58 48.3636 1382.09 48.5189 1381.7 48.8295C1381.32 49.1402 1381.03 49.5473 1380.84 50.0511C1380.66 50.5549 1380.57 51.0985 1380.57 51.6818C1380.57 52.2652 1380.66 52.8068 1380.84 53.3068C1381.03 53.8068 1381.32 54.2102 1381.7 54.517C1382.09 54.8239 1382.58 54.9773 1383.18 54.9773ZM1390.52 50.75V56H1389.18V47.2727H1390.48V48.6364H1390.59C1390.79 48.1932 1391.1 47.8371 1391.52 47.5682C1391.94 47.2955 1392.48 47.1591 1393.13 47.1591C1393.73 47.1591 1394.24 47.2803 1394.69 47.5227C1395.13 47.7614 1395.47 48.125 1395.72 48.6136C1395.97 49.0985 1396.09 49.7121 1396.09 50.4545V56H1394.75V50.5455C1394.75 49.8598 1394.57 49.3258 1394.21 48.9432C1393.86 48.5568 1393.37 48.3636 1392.75 48.3636C1392.32 48.3636 1391.94 48.4564 1391.6 48.642C1391.27 48.8277 1391 49.0985 1390.81 49.4545C1390.62 49.8106 1390.52 50.2424 1390.52 50.75ZM1401.84 56.1818C1401.11 56.1818 1400.47 55.9981 1399.91 55.6307C1399.35 55.2595 1398.92 54.7367 1398.6 54.0625C1398.29 53.3845 1398.13 52.5833 1398.13 51.6591C1398.13 50.7424 1398.29 49.947 1398.6 49.2727C1398.92 48.5985 1399.35 48.0777 1399.91 47.7102C1400.48 47.3428 1401.12 47.1591 1401.86 47.1591C1402.43 47.1591 1402.88 47.2538 1403.2 47.4432C1403.54 47.6288 1403.79 47.8409 1403.97 48.0795C1404.14 48.3144 1404.28 48.5076 1404.38 48.6591H1404.49V44.3636H1405.84V56H1404.54V54.6591H1404.38C1404.28 54.8182 1404.14 55.0189 1403.96 55.2614C1403.78 55.5 1403.52 55.714 1403.18 55.9034C1402.84 56.089 1402.4 56.1818 1401.84 56.1818ZM1402.02 54.9773C1402.55 54.9773 1403.01 54.8371 1403.38 54.5568C1403.75 54.2727 1404.03 53.8807 1404.23 53.3807C1404.42 52.8769 1404.52 52.2955 1404.52 51.6364C1404.52 50.9848 1404.42 50.4148 1404.23 49.9261C1404.04 49.4337 1403.76 49.0511 1403.39 48.7784C1403.02 48.5019 1402.56 48.3636 1402.02 48.3636C1401.45 48.3636 1400.98 48.5095 1400.6 48.8011C1400.22 49.089 1399.94 49.4811 1399.75 49.9773C1399.56 50.4697 1399.47 51.0227 1399.47 51.6364C1399.47 52.2576 1399.57 52.822 1399.76 53.3295C1399.95 53.8333 1400.23 54.2348 1400.61 54.5341C1400.99 54.8295 1401.46 54.9773 1402.02 54.9773ZM1408.48 56V47.2727H1409.82V56H1408.48ZM1409.16 45.8182C1408.9 45.8182 1408.67 45.7292 1408.48 45.5511C1408.3 45.3731 1408.2 45.1591 1408.2 44.9091C1408.2 44.6591 1408.3 44.4451 1408.48 44.267C1408.67 44.089 1408.9 44 1409.16 44C1409.42 44 1409.64 44.089 1409.83 44.267C1410.02 44.4451 1410.11 44.6591 1410.11 44.9091C1410.11 45.1591 1410.02 45.3731 1409.83 45.5511C1409.64 45.7292 1409.42 45.8182 1409.16 45.8182ZM1416.07 47.2727V48.4091H1411.55V47.2727H1416.07ZM1412.87 45.1818H1414.21V53.5C1414.21 53.8788 1414.26 54.1629 1414.37 54.3523C1414.48 54.5379 1414.63 54.6629 1414.8 54.7273C1414.98 54.7879 1415.17 54.8182 1415.37 54.8182C1415.51 54.8182 1415.63 54.8106 1415.73 54.7955C1415.82 54.7765 1415.9 54.7614 1415.96 54.75L1416.23 55.9545C1416.14 55.9886 1416.01 56.0227 1415.85 56.0568C1415.69 56.0947 1415.48 56.1136 1415.23 56.1136C1414.85 56.1136 1414.48 56.0322 1414.12 55.8693C1413.76 55.7064 1413.46 55.4583 1413.22 55.125C1412.98 54.7917 1412.87 54.3712 1412.87 53.8636V45.1818ZM1418.09 56V47.2727H1419.43V56H1418.09ZM1418.77 45.8182C1418.51 45.8182 1418.28 45.7292 1418.09 45.5511C1417.91 45.3731 1417.81 45.1591 1417.81 44.9091C1417.81 44.6591 1417.91 44.4451 1418.09 44.267C1418.28 44.089 1418.51 44 1418.77 44C1419.03 44 1419.25 44.089 1419.44 44.267C1419.63 44.4451 1419.72 44.6591 1419.72 44.9091C1419.72 45.1591 1419.63 45.3731 1419.44 45.5511C1419.25 45.7292 1419.03 45.8182 1418.77 45.8182ZM1425.43 56.1818C1424.64 56.1818 1423.95 55.9943 1423.36 55.6193C1422.76 55.2443 1422.3 54.7197 1421.97 54.0455C1421.64 53.3712 1421.47 52.5833 1421.47 51.6818C1421.47 50.7727 1421.64 49.9792 1421.97 49.3011C1422.3 48.6231 1422.76 48.0966 1423.36 47.7216C1423.95 47.3466 1424.64 47.1591 1425.43 47.1591C1426.22 47.1591 1426.91 47.3466 1427.5 47.7216C1428.09 48.0966 1428.55 48.6231 1428.88 49.3011C1429.22 49.9792 1429.38 50.7727 1429.38 51.6818C1429.38 52.5833 1429.22 53.3712 1428.88 54.0455C1428.55 54.7197 1428.09 55.2443 1427.5 55.6193C1426.91 55.9943 1426.22 56.1818 1425.43 56.1818ZM1425.43 54.9773C1426.03 54.9773 1426.52 54.8239 1426.91 54.517C1427.29 54.2102 1427.58 53.8068 1427.76 53.3068C1427.95 52.8068 1428.04 52.2652 1428.04 51.6818C1428.04 51.0985 1427.95 50.5549 1427.76 50.0511C1427.58 49.5473 1427.29 49.1402 1426.91 48.8295C1426.52 48.5189 1426.03 48.3636 1425.43 48.3636C1424.83 48.3636 1424.34 48.5189 1423.95 48.8295C1423.57 49.1402 1423.28 49.5473 1423.09 50.0511C1422.91 50.5549 1422.82 51.0985 1422.82 51.6818C1422.82 52.2652 1422.91 52.8068 1423.09 53.3068C1423.28 53.8068 1423.57 54.2102 1423.95 54.517C1424.34 54.8239 1424.83 54.9773 1425.43 54.9773ZM1432.77 50.75V56H1431.43V47.2727H1432.73V48.6364H1432.84C1433.04 48.1932 1433.35 47.8371 1433.77 47.5682C1434.19 47.2955 1434.73 47.1591 1435.38 47.1591C1435.98 47.1591 1436.49 47.2803 1436.94 47.5227C1437.38 47.7614 1437.72 48.125 1437.97 48.6136C1438.22 49.0985 1438.34 49.7121 1438.34 50.4545V56H1437V50.5455C1437 49.8598 1436.82 49.3258 1436.46 48.9432C1436.11 48.5568 1435.62 48.3636 1435 48.3636C1434.57 48.3636 1434.19 48.4564 1433.85 48.642C1433.52 48.8277 1433.25 49.0985 1433.06 49.4545C1432.87 49.8106 1432.77 50.2424 1432.77 50.75ZM1446.97 49.2273L1445.77 49.5682C1445.69 49.3674 1445.58 49.1723 1445.43 48.983C1445.29 48.7898 1445.09 48.6307 1444.84 48.5057C1444.59 48.3807 1444.27 48.3182 1443.88 48.3182C1443.35 48.3182 1442.9 48.4413 1442.55 48.6875C1442.19 48.9299 1442.02 49.2386 1442.02 49.6136C1442.02 49.947 1442.14 50.2102 1442.38 50.4034C1442.62 50.5966 1443 50.7576 1443.52 50.8864L1444.81 51.2045C1445.59 51.3939 1446.17 51.6837 1446.56 52.0739C1446.94 52.4602 1447.13 52.9583 1447.13 53.5682C1447.13 54.0682 1446.99 54.5152 1446.7 54.9091C1446.41 55.303 1446.02 55.6136 1445.51 55.8409C1444.99 56.0682 1444.4 56.1818 1443.72 56.1818C1442.83 56.1818 1442.09 55.9886 1441.51 55.6023C1440.93 55.2159 1440.56 54.6515 1440.4 53.9091L1441.68 53.5909C1441.8 54.0606 1442.03 54.4129 1442.36 54.6477C1442.7 54.8826 1443.15 55 1443.7 55C1444.32 55 1444.82 54.8674 1445.19 54.6023C1445.56 54.3333 1445.74 54.0114 1445.74 53.6364C1445.74 53.3333 1445.64 53.0795 1445.43 52.875C1445.21 52.6667 1444.89 52.5114 1444.45 52.4091L1442.99 52.0682C1442.2 51.8788 1441.61 51.5852 1441.23 51.1875C1440.86 50.786 1440.68 50.2841 1440.68 49.6818C1440.68 49.1894 1440.81 48.7538 1441.09 48.375C1441.37 47.9962 1441.75 47.6989 1442.23 47.483C1442.72 47.267 1443.27 47.1591 1443.88 47.1591C1444.74 47.1591 1445.42 47.3485 1445.91 47.7273C1446.41 48.1061 1446.76 48.6061 1446.97 49.2273Z" fill="white"/>
<circle cx="1284.5" cy="49.5" r="7.5" fill="white"/>
<path fill-rule="evenodd" clip-rule="evenodd" d="M1287.1 49.9443L1283.56 53.4799L1282.68 52.5962L1285.77 49.5024L1282.68 46.4087L1283.56 45.5249L1287.1 49.0605C1287.22 49.1777 1287.28 49.3367 1287.28 49.5024C1287.28 49.6681 1287.22 49.8271 1287.1 49.9443Z" fill="#12372A"/>
<path d="M294 49.1818C294 48.5606 294.152 47.9943 294.455 47.483C294.758 46.9716 295.165 46.5644 295.676 46.2614C296.188 45.9583 296.754 45.8068 297.375 45.8068C297.913 45.8068 298.409 45.9223 298.864 46.1534C299.322 46.3845 299.701 46.7008 300 47.1023C300.299 47.5 300.485 47.9508 300.557 48.4545H299.182C299.106 48.0644 298.896 47.7462 298.551 47.5C298.206 47.25 297.814 47.125 297.375 47.125C296.996 47.125 296.652 47.2178 296.341 47.4034C296.03 47.589 295.782 47.8371 295.597 48.1477C295.411 48.4583 295.318 48.803 295.318 49.1818C295.318 49.5606 295.411 49.9053 295.597 50.2159C295.782 50.5265 296.03 50.7746 296.341 50.9602C296.652 51.1458 296.996 51.2386 297.375 51.2386C297.814 51.2386 298.186 51.1155 298.489 50.8693C298.795 50.6193 298.989 50.2992 299.068 49.9091H300.443C300.371 50.4129 300.195 50.8655 299.915 51.267C299.634 51.6648 299.275 51.9792 298.835 52.2102C298.4 52.4413 297.913 52.5568 297.375 52.5568C296.754 52.5568 296.188 52.4053 295.676 52.1023C295.165 51.7992 294.758 51.392 294.455 50.8807C294.152 50.3693 294 49.803 294 49.1818ZM297.318 55.1818C296.492 55.1818 295.716 55.0265 294.989 54.7159C294.265 54.4053 293.627 53.9754 293.074 53.4261C292.525 52.8731 292.093 52.2348 291.778 51.5114C291.468 50.7879 291.314 50.0114 291.318 49.1818C291.322 48.3523 291.479 47.5758 291.79 46.8523C292.104 46.1288 292.536 45.4924 293.085 44.9432C293.634 44.3902 294.271 43.9583 294.994 43.6477C295.718 43.3371 296.492 43.1818 297.318 43.1818C298.148 43.1818 298.924 43.3371 299.648 43.6477C300.375 43.9583 301.011 44.3902 301.557 44.9432C302.106 45.4924 302.536 46.1288 302.847 46.8523C303.157 47.5758 303.314 48.3523 303.318 49.1818C303.322 50.0114 303.169 50.7879 302.858 51.5114C302.547 52.2348 302.117 52.8731 301.568 53.4261C301.019 53.9754 300.381 54.4053 299.653 54.7159C298.926 55.0265 298.148 55.1818 297.318 55.1818ZM297.318 53.8636C297.966 53.8636 298.574 53.7424 299.142 53.5C299.71 53.2576 300.208 52.9223 300.636 52.4943C301.064 52.0663 301.4 51.5701 301.642 51.0057C301.884 50.4375 302.004 49.8314 302 49.1875C301.996 48.5398 301.873 47.9318 301.631 47.3636C301.388 46.7955 301.053 46.2973 300.625 45.8693C300.197 45.4413 299.701 45.1061 299.136 44.8636C298.572 44.6212 297.966 44.5 297.318 44.5C296.674 44.5 296.07 44.6212 295.506 44.8636C294.941 45.1061 294.445 45.4432 294.017 45.875C293.589 46.303 293.252 46.8011 293.006 47.3693C292.763 47.9337 292.64 48.5398 292.636 49.1875C292.633 49.8277 292.752 50.4318 292.994 51C293.237 51.5644 293.572 52.0606 294 52.4886C294.432 52.9167 294.93 53.2538 295.494 53.5C296.063 53.7424 296.67 53.8636 297.318 53.8636ZM310.345 55V53.9773L314.186 49.7727C314.637 49.2803 315.008 48.8523 315.3 48.4886C315.591 48.1212 315.807 47.7765 315.947 47.4545C316.091 47.1288 316.163 46.7879 316.163 46.4318C316.163 46.0227 316.065 45.6686 315.868 45.3693C315.675 45.0701 315.41 44.839 315.072 44.6761C314.735 44.5133 314.357 44.4318 313.936 44.4318C313.489 44.4318 313.099 44.5246 312.766 44.7102C312.436 44.892 312.18 45.1477 311.999 45.4773C311.821 45.8068 311.732 46.1932 311.732 46.6364H310.391C310.391 45.9545 310.548 45.3561 310.862 44.8409C311.177 44.3258 311.605 43.9242 312.146 43.6364C312.692 43.3485 313.304 43.2045 313.982 43.2045C314.663 43.2045 315.268 43.3485 315.794 43.6364C316.321 43.9242 316.733 44.3125 317.033 44.8011C317.332 45.2898 317.482 45.8333 317.482 46.4318C317.482 46.8598 317.404 47.2784 317.249 47.6875C317.097 48.0928 316.832 48.5455 316.453 49.0455C316.078 49.5417 315.557 50.1477 314.891 50.8636L312.277 53.6591V53.75H317.686V55H310.345ZM323.828 55.1591C322.972 55.1591 322.243 54.9261 321.641 54.4602C321.038 53.9905 320.578 53.3106 320.26 52.4205C319.942 51.5265 319.783 50.447 319.783 49.1818C319.783 47.9242 319.942 46.8504 320.26 45.9602C320.582 45.0663 321.044 44.3845 321.646 43.9148C322.252 43.4413 322.98 43.2045 323.828 43.2045C324.677 43.2045 325.402 43.4413 326.004 43.9148C326.61 44.3845 327.072 45.0663 327.391 45.9602C327.713 46.8504 327.874 47.9242 327.874 49.1818C327.874 50.447 327.714 51.5265 327.396 52.4205C327.078 53.3106 326.618 53.9905 326.016 54.4602C325.413 54.9261 324.684 55.1591 323.828 55.1591ZM323.828 53.9091C324.677 53.9091 325.336 53.5 325.805 52.6818C326.275 51.8636 326.51 50.697 326.51 49.1818C326.51 48.1742 326.402 47.3163 326.186 46.608C325.974 45.8996 325.667 45.3598 325.266 44.9886C324.868 44.6174 324.389 44.4318 323.828 44.4318C322.987 44.4318 322.33 44.8466 321.857 45.6761C321.383 46.5019 321.146 47.6705 321.146 49.1818C321.146 50.1894 321.252 51.0455 321.464 51.75C321.677 52.4545 321.982 52.9905 322.379 53.358C322.781 53.7254 323.264 53.9091 323.828 53.9091ZM330.033 55V53.9773L333.874 49.7727C334.324 49.2803 334.696 48.8523 334.987 48.4886C335.279 48.1212 335.495 47.7765 335.635 47.4545C335.779 47.1288 335.851 46.7879 335.851 46.4318C335.851 46.0227 335.752 45.6686 335.555 45.3693C335.362 45.0701 335.097 44.839 334.76 44.6761C334.423 44.5133 334.044 44.4318 333.624 44.4318C333.177 44.4318 332.786 44.5246 332.453 44.7102C332.124 44.892 331.868 45.1477 331.686 45.4773C331.508 45.8068 331.419 46.1932 331.419 46.6364H330.078C330.078 45.9545 330.235 45.3561 330.55 44.8409C330.864 44.3258 331.292 43.9242 331.834 43.6364C332.379 43.3485 332.991 43.2045 333.669 43.2045C334.351 43.2045 334.955 43.3485 335.482 43.6364C336.008 43.9242 336.421 44.3125 336.72 44.8011C337.019 45.2898 337.169 45.8333 337.169 46.4318C337.169 46.8598 337.091 47.2784 336.936 47.6875C336.785 48.0928 336.519 48.5455 336.141 49.0455C335.766 49.5417 335.245 50.1477 334.578 50.8636L331.964 53.6591V53.75H337.374V55H330.033ZM343.357 55.1591C342.69 55.1591 342.089 55.0265 341.555 54.7614C341.021 54.4962 340.593 54.1326 340.271 53.6705C339.949 53.2083 339.773 52.6818 339.743 52.0909H341.107C341.16 52.6174 341.398 53.053 341.822 53.3977C342.25 53.7386 342.762 53.9091 343.357 53.9091C343.834 53.9091 344.258 53.7973 344.629 53.5739C345.004 53.3504 345.298 53.0436 345.51 52.6534C345.726 52.2595 345.834 51.8144 345.834 51.3182C345.834 50.8106 345.722 50.358 345.499 49.9602C345.279 49.5587 344.976 49.2424 344.589 49.0114C344.203 48.7803 343.762 48.6629 343.266 48.6591C342.91 48.6553 342.544 48.7102 342.169 48.8239C341.794 48.9337 341.485 49.0758 341.243 49.25L339.925 49.0909L340.629 43.3636H346.675V44.6136H341.811L341.402 48.0455H341.47C341.709 47.8561 342.008 47.6989 342.368 47.5739C342.728 47.4489 343.103 47.3864 343.493 47.3864C344.205 47.3864 344.839 47.5568 345.396 47.8977C345.957 48.2348 346.396 48.697 346.714 49.2841C347.036 49.8712 347.197 50.5417 347.197 51.2955C347.197 52.0379 347.031 52.7008 346.697 53.2841C346.368 53.8636 345.913 54.322 345.334 54.6591C344.754 54.9924 344.095 55.1591 343.357 55.1591ZM360.523 46.2727C360.455 45.697 360.178 45.25 359.693 44.9318C359.208 44.6136 358.614 44.4545 357.909 44.4545C357.394 44.4545 356.943 44.5379 356.557 44.7045C356.174 44.8712 355.875 45.1004 355.659 45.392C355.447 45.6837 355.341 46.0152 355.341 46.3864C355.341 46.697 355.415 46.964 355.562 47.1875C355.714 47.4072 355.907 47.5909 356.142 47.7386C356.377 47.8826 356.623 48.0019 356.881 48.0966C357.138 48.1875 357.375 48.2614 357.591 48.3182L358.773 48.6364C359.076 48.7159 359.413 48.8258 359.784 48.9659C360.159 49.1061 360.517 49.2973 360.858 49.5398C361.203 49.7784 361.487 50.0852 361.71 50.4602C361.934 50.8352 362.045 51.2955 362.045 51.8409C362.045 52.4697 361.881 53.0379 361.551 53.5455C361.225 54.053 360.748 54.4564 360.119 54.7557C359.494 55.0549 358.735 55.2045 357.841 55.2045C357.008 55.2045 356.286 55.0701 355.676 54.8011C355.07 54.5322 354.593 54.1572 354.244 53.6761C353.9 53.1951 353.705 52.6364 353.659 52H355.114C355.152 52.4394 355.299 52.803 355.557 53.0909C355.818 53.375 356.148 53.5871 356.545 53.7273C356.947 53.8636 357.379 53.9318 357.841 53.9318C358.379 53.9318 358.862 53.8447 359.29 53.6705C359.718 53.4924 360.057 53.2462 360.307 52.9318C360.557 52.6136 360.682 52.2424 360.682 51.8182C360.682 51.4318 360.574 51.1174 360.358 50.875C360.142 50.6326 359.858 50.4356 359.506 50.2841C359.153 50.1326 358.773 50 358.364 49.8864L356.932 49.4773C356.023 49.2159 355.303 48.8428 354.773 48.358C354.242 47.8731 353.977 47.2386 353.977 46.4545C353.977 45.803 354.153 45.2348 354.506 44.75C354.862 44.2614 355.339 43.8826 355.938 43.6136C356.54 43.3409 357.212 43.2045 357.955 43.2045C358.705 43.2045 359.371 43.339 359.955 43.608C360.538 43.8731 361 44.2367 361.341 44.6989C361.686 45.161 361.867 45.6856 361.886 46.2727H360.523ZM367.976 46.2727V47.4091H363.453V46.2727H367.976ZM364.771 44.1818H366.112V52.5C366.112 52.8788 366.167 53.1629 366.277 53.3523C366.391 53.5379 366.535 53.6629 366.709 53.7273C366.887 53.7879 367.074 53.8182 367.271 53.8182C367.419 53.8182 367.54 53.8106 367.635 53.7955C367.73 53.7765 367.805 53.7614 367.862 53.75L368.135 54.9545C368.044 54.9886 367.917 55.0227 367.754 55.0568C367.591 55.0947 367.385 55.1136 367.135 55.1136C366.756 55.1136 366.385 55.0322 366.021 54.8693C365.661 54.7064 365.362 54.4583 365.124 54.125C364.889 53.7917 364.771 53.3712 364.771 52.8636V44.1818ZM373.445 55.1818C372.657 55.1818 371.965 54.9943 371.371 54.6193C370.78 54.2443 370.318 53.7197 369.984 53.0455C369.655 52.3712 369.49 51.5833 369.49 50.6818C369.49 49.7727 369.655 48.9792 369.984 48.3011C370.318 47.6231 370.78 47.0966 371.371 46.7216C371.965 46.3466 372.657 46.1591 373.445 46.1591C374.232 46.1591 374.922 46.3466 375.513 46.7216C376.107 47.0966 376.57 47.6231 376.899 48.3011C377.232 48.9792 377.399 49.7727 377.399 50.6818C377.399 51.5833 377.232 52.3712 376.899 53.0455C376.57 53.7197 376.107 54.2443 375.513 54.6193C374.922 54.9943 374.232 55.1818 373.445 55.1818ZM373.445 53.9773C374.043 53.9773 374.536 53.8239 374.922 53.517C375.308 53.2102 375.594 52.8068 375.78 52.3068C375.965 51.8068 376.058 51.2652 376.058 50.6818C376.058 50.0985 375.965 49.5549 375.78 49.0511C375.594 48.5473 375.308 48.1402 374.922 47.8295C374.536 47.5189 374.043 47.3636 373.445 47.3636C372.846 47.3636 372.354 47.5189 371.967 47.8295C371.581 48.1402 371.295 48.5473 371.109 49.0511C370.924 49.5549 370.831 50.0985 370.831 50.6818C370.831 51.2652 370.924 51.8068 371.109 52.3068C371.295 52.8068 371.581 53.2102 371.967 53.517C372.354 53.8239 372.846 53.9773 373.445 53.9773ZM379.446 55V46.2727H380.741V47.5909H380.832C380.991 47.1591 381.279 46.8087 381.696 46.5398C382.113 46.2708 382.582 46.1364 383.105 46.1364C383.204 46.1364 383.327 46.1383 383.474 46.142C383.622 46.1458 383.734 46.1515 383.81 46.1591V47.5227C383.764 47.5114 383.66 47.4943 383.497 47.4716C383.338 47.4451 383.17 47.4318 382.991 47.4318C382.567 47.4318 382.188 47.5208 381.855 47.6989C381.526 47.8731 381.264 48.1155 381.071 48.4261C380.882 48.733 380.787 49.0833 380.787 49.4773V55H379.446ZM385.418 55H383.94L388.213 43.3636H389.668L393.94 55H392.463L388.986 45.2045H388.895L385.418 55ZM385.963 50.4545H391.918V51.7045H385.963V50.4545ZM395.665 55V46.2727H397.006V55H395.665ZM396.347 44.8182C396.085 44.8182 395.86 44.7292 395.67 44.5511C395.485 44.3731 395.392 44.1591 395.392 43.9091C395.392 43.6591 395.485 43.4451 395.67 43.267C395.86 43.089 396.085 43 396.347 43C396.608 43 396.831 43.089 397.017 43.267C397.206 43.4451 397.301 43.6591 397.301 43.9091C397.301 44.1591 397.206 44.3731 397.017 44.5511C396.831 44.7292 396.608 44.8182 396.347 44.8182ZM402.757 55.1818C402.03 55.1818 401.388 54.9981 400.831 54.6307C400.274 54.2595 399.839 53.7367 399.524 53.0625C399.21 52.3845 399.053 51.5833 399.053 50.6591C399.053 49.7424 399.21 48.947 399.524 48.2727C399.839 47.5985 400.276 47.0777 400.837 46.7102C401.397 46.3428 402.045 46.1591 402.78 46.1591C403.348 46.1591 403.797 46.2538 404.126 46.4432C404.46 46.6288 404.714 46.8409 404.888 47.0795C405.066 47.3144 405.204 47.5076 405.303 47.6591H405.416V43.3636H406.757V55H405.462V53.6591H405.303C405.204 53.8182 405.064 54.0189 404.882 54.2614C404.7 54.5 404.441 54.714 404.104 54.9034C403.767 55.089 403.318 55.1818 402.757 55.1818ZM402.939 53.9773C403.477 53.9773 403.931 53.8371 404.303 53.5568C404.674 53.2727 404.956 52.8807 405.149 52.3807C405.342 51.8769 405.439 51.2955 405.439 50.6364C405.439 49.9848 405.344 49.4148 405.155 48.9261C404.965 48.4337 404.685 48.0511 404.314 47.7784C403.943 47.5019 403.484 47.3636 402.939 47.3636C402.371 47.3636 401.897 47.5095 401.518 47.8011C401.143 48.089 400.861 48.4811 400.672 48.9773C400.486 49.4697 400.393 50.0227 400.393 50.6364C400.393 51.2576 400.488 51.822 400.678 52.3295C400.871 52.8333 401.155 53.2348 401.53 53.5341C401.909 53.8295 402.378 53.9773 402.939 53.9773ZM411.399 53.4091L411.308 54.0227C411.244 54.4545 411.145 54.9167 411.013 55.4091C410.884 55.9015 410.75 56.3655 410.609 56.8011C410.469 57.2367 410.354 57.5833 410.263 57.8409H409.24C409.289 57.5985 409.354 57.2784 409.433 56.8807C409.513 56.483 409.592 56.0379 409.672 55.5455C409.755 55.0568 409.823 54.5568 409.876 54.0455L409.945 53.4091H411.399ZM419.043 55H417.565L421.838 43.3636H423.293L427.565 55H426.088L422.611 45.2045H422.52L419.043 55ZM419.588 50.4545H425.543V51.7045H419.588V50.4545ZM430.537 43.3636V55H429.196V43.3636H430.537ZM434.334 43.3636V55H432.993V43.3636H434.334ZM441.29 55V46.2727H442.585V47.5909H442.676C442.835 47.1591 443.123 46.8087 443.54 46.5398C443.956 46.2708 444.426 46.1364 444.949 46.1364C445.047 46.1364 445.17 46.1383 445.318 46.142C445.466 46.1458 445.578 46.1515 445.653 46.1591V47.5227C445.608 47.5114 445.504 47.4943 445.341 47.4716C445.182 47.4451 445.013 47.4318 444.835 47.4318C444.411 47.4318 444.032 47.5208 443.699 47.6989C443.369 47.8731 443.108 48.1155 442.915 48.4261C442.725 48.733 442.631 49.0833 442.631 49.4773V55H441.29ZM447.243 55V46.2727H448.584V55H447.243ZM447.925 44.8182C447.663 44.8182 447.438 44.7292 447.249 44.5511C447.063 44.3731 446.97 44.1591 446.97 43.9091C446.97 43.6591 447.063 43.4451 447.249 43.267C447.438 43.089 447.663 43 447.925 43C448.186 43 448.41 43.089 448.595 43.267C448.785 43.4451 448.879 43.6591 448.879 43.9091C448.879 44.1591 448.785 44.3731 448.595 44.5511C448.41 44.7292 448.186 44.8182 447.925 44.8182ZM454.562 58.4545C453.915 58.4545 453.358 58.3712 452.892 58.2045C452.426 58.0417 452.038 57.8258 451.727 57.5568C451.42 57.2917 451.176 57.0076 450.994 56.7045L452.062 55.9545C452.184 56.1136 452.337 56.2955 452.523 56.5C452.708 56.7083 452.962 56.8883 453.284 57.0398C453.61 57.1951 454.036 57.2727 454.562 57.2727C455.267 57.2727 455.848 57.1023 456.307 56.7614C456.765 56.4205 456.994 55.8864 456.994 55.1591V53.3864H456.881C456.782 53.5455 456.642 53.7424 456.46 53.9773C456.282 54.2083 456.025 54.4148 455.688 54.5966C455.354 54.7746 454.903 54.8636 454.335 54.8636C453.631 54.8636 452.998 54.697 452.438 54.3636C451.881 54.0303 451.439 53.5455 451.114 52.9091C450.792 52.2727 450.631 51.5 450.631 50.5909C450.631 49.697 450.788 48.9186 451.102 48.2557C451.417 47.589 451.854 47.0739 452.415 46.7102C452.975 46.3428 453.623 46.1591 454.358 46.1591C454.926 46.1591 455.377 46.2538 455.71 46.4432C456.047 46.6288 456.305 46.8409 456.483 47.0795C456.665 47.3144 456.805 47.5076 456.903 47.6591H457.04V46.2727H458.335V55.25C458.335 56 458.165 56.6098 457.824 57.0795C457.487 57.553 457.032 57.8996 456.46 58.1193C455.892 58.3428 455.259 58.4545 454.562 58.4545ZM454.517 53.6591C455.055 53.6591 455.509 53.536 455.881 53.2898C456.252 53.0436 456.534 52.6894 456.727 52.2273C456.92 51.7652 457.017 51.2121 457.017 50.5682C457.017 49.9394 456.922 49.3845 456.733 48.9034C456.544 48.4223 456.263 48.0455 455.892 47.7727C455.521 47.5 455.063 47.3636 454.517 47.3636C453.949 47.3636 453.475 47.5076 453.097 47.7955C452.722 48.0833 452.439 48.4697 452.25 48.9545C452.064 49.4394 451.972 49.9773 451.972 50.5682C451.972 51.1742 452.066 51.7102 452.256 52.1761C452.449 52.6383 452.733 53.0019 453.108 53.267C453.487 53.5284 453.956 53.6591 454.517 53.6591ZM462.131 49.75V55H460.79V43.3636H462.131V47.6364H462.244C462.449 47.1856 462.756 46.8277 463.165 46.5625C463.578 46.2936 464.127 46.1591 464.812 46.1591C465.407 46.1591 465.928 46.2784 466.375 46.517C466.822 46.7519 467.169 47.1136 467.415 47.6023C467.665 48.0871 467.79 48.7045 467.79 49.4545V55H466.449V49.5455C466.449 48.8523 466.269 48.3163 465.909 47.9375C465.553 47.5549 465.059 47.3636 464.426 47.3636C463.987 47.3636 463.593 47.4564 463.244 47.642C462.9 47.8277 462.627 48.0985 462.426 48.4545C462.229 48.8106 462.131 49.2424 462.131 49.75ZM474.038 46.2727V47.4091H469.516V46.2727H474.038ZM470.834 44.1818H472.175V52.5C472.175 52.8788 472.23 53.1629 472.339 53.3523C472.453 53.5379 472.597 53.6629 472.771 53.7273C472.949 53.7879 473.137 53.8182 473.334 53.8182C473.482 53.8182 473.603 53.8106 473.697 53.7955C473.792 53.7765 473.868 53.7614 473.925 53.75L474.197 54.9545C474.107 54.9886 473.98 55.0227 473.817 55.0568C473.654 55.0947 473.447 55.1136 473.197 55.1136C472.819 55.1136 472.447 55.0322 472.084 54.8693C471.724 54.7064 471.425 54.4583 471.186 54.125C470.951 53.7917 470.834 53.3712 470.834 52.8636V44.1818ZM482.081 48.2273L480.876 48.5682C480.801 48.3674 480.689 48.1723 480.541 47.983C480.397 47.7898 480.2 47.6307 479.95 47.5057C479.7 47.3807 479.38 47.3182 478.99 47.3182C478.456 47.3182 478.011 47.4413 477.655 47.6875C477.303 47.9299 477.126 48.2386 477.126 48.6136C477.126 48.947 477.248 49.2102 477.49 49.4034C477.732 49.5966 478.111 49.7576 478.626 49.8864L479.922 50.2045C480.702 50.3939 481.284 50.6837 481.666 51.0739C482.049 51.4602 482.24 51.9583 482.24 52.5682C482.24 53.0682 482.096 53.5152 481.808 53.9091C481.524 54.303 481.126 54.6136 480.615 54.8409C480.104 55.0682 479.509 55.1818 478.831 55.1818C477.941 55.1818 477.204 54.9886 476.621 54.6023C476.037 54.2159 475.668 53.6515 475.513 52.9091L476.786 52.5909C476.907 53.0606 477.136 53.4129 477.473 53.6477C477.814 53.8826 478.259 54 478.808 54C479.433 54 479.929 53.8674 480.297 53.6023C480.668 53.3333 480.854 53.0114 480.854 52.6364C480.854 52.3333 480.748 52.0795 480.536 51.875C480.323 51.6667 479.998 51.5114 479.558 51.4091L478.104 51.0682C477.304 50.8788 476.717 50.5852 476.342 50.1875C475.971 49.786 475.786 49.2841 475.786 48.6818C475.786 48.1894 475.924 47.7538 476.2 47.375C476.481 46.9962 476.861 46.6989 477.342 46.483C477.827 46.267 478.376 46.1591 478.99 46.1591C479.854 46.1591 480.532 46.3485 481.024 46.7273C481.52 47.1061 481.873 47.6061 482.081 48.2273ZM488.759 55V46.2727H490.054V47.5909H490.145C490.304 47.1591 490.592 46.8087 491.009 46.5398C491.425 46.2708 491.895 46.1364 492.418 46.1364C492.516 46.1364 492.639 46.1383 492.787 46.142C492.935 46.1458 493.046 46.1515 493.122 46.1591V47.5227C493.077 47.5114 492.973 47.4943 492.81 47.4716C492.651 47.4451 492.482 47.4318 492.304 47.4318C491.88 47.4318 491.501 47.5208 491.168 47.6989C490.838 47.8731 490.577 48.1155 490.384 48.4261C490.194 48.733 490.099 49.0833 490.099 49.4773V55H488.759ZM498.105 55.1818C497.264 55.1818 496.539 54.9962 495.929 54.625C495.323 54.25 494.855 53.7273 494.526 53.0568C494.2 52.3826 494.037 51.5985 494.037 50.7045C494.037 49.8106 494.2 49.0227 494.526 48.3409C494.855 47.6553 495.313 47.1212 495.901 46.7386C496.491 46.3523 497.181 46.1591 497.969 46.1591C498.423 46.1591 498.872 46.2348 499.315 46.3864C499.759 46.5379 500.162 46.7841 500.526 47.125C500.889 47.4621 501.179 47.9091 501.395 48.4659C501.611 49.0227 501.719 49.7083 501.719 50.5227V51.0909H494.991V49.9318H500.355C500.355 49.4394 500.257 49 500.06 48.6136C499.866 48.2273 499.59 47.9223 499.23 47.6989C498.874 47.4754 498.454 47.3636 497.969 47.3636C497.435 47.3636 496.973 47.4962 496.582 47.7614C496.196 48.0227 495.899 48.3636 495.69 48.7841C495.482 49.2045 495.378 49.6553 495.378 50.1364V50.9091C495.378 51.5682 495.491 52.1269 495.719 52.5852C495.95 53.0398 496.27 53.3864 496.679 53.625C497.088 53.8598 497.563 53.9773 498.105 53.9773C498.457 53.9773 498.776 53.928 499.06 53.8295C499.348 53.7273 499.596 53.5758 499.804 53.375C500.012 53.1705 500.173 52.9167 500.287 52.6136L501.582 52.9773C501.446 53.4167 501.217 53.803 500.895 54.1364C500.573 54.4659 500.175 54.7235 499.702 54.9091C499.228 55.0909 498.696 55.1818 498.105 55.1818ZM509.94 48.2273L508.736 48.5682C508.66 48.3674 508.548 48.1723 508.401 47.983C508.257 47.7898 508.06 47.6307 507.81 47.5057C507.56 47.3807 507.24 47.3182 506.849 47.3182C506.315 47.3182 505.87 47.4413 505.514 47.6875C505.162 47.9299 504.986 48.2386 504.986 48.6136C504.986 48.947 505.107 49.2102 505.349 49.4034C505.592 49.5966 505.971 49.7576 506.486 49.8864L507.781 50.2045C508.562 50.3939 509.143 50.6837 509.526 51.0739C509.908 51.4602 510.099 51.9583 510.099 52.5682C510.099 53.0682 509.955 53.5152 509.668 53.9091C509.384 54.303 508.986 54.6136 508.474 54.8409C507.963 55.0682 507.368 55.1818 506.69 55.1818C505.8 55.1818 505.063 54.9886 504.48 54.6023C503.897 54.2159 503.527 53.6515 503.372 52.9091L504.645 52.5909C504.766 53.0606 504.995 53.4129 505.332 53.6477C505.673 53.8826 506.118 54 506.668 54C507.293 54 507.789 53.8674 508.156 53.6023C508.527 53.3333 508.713 53.0114 508.713 52.6364C508.713 52.3333 508.607 52.0795 508.395 51.875C508.183 51.6667 507.857 51.5114 507.418 51.4091L505.963 51.0682C505.164 50.8788 504.577 50.5852 504.202 50.1875C503.83 49.786 503.645 49.2841 503.645 48.6818C503.645 48.1894 503.783 47.7538 504.06 47.375C504.34 46.9962 504.721 46.6989 505.202 46.483C505.687 46.267 506.236 46.1591 506.849 46.1591C507.713 46.1591 508.391 46.3485 508.884 46.7273C509.38 47.1061 509.732 47.6061 509.94 48.2273ZM515.777 55.1818C514.936 55.1818 514.211 54.9962 513.601 54.625C512.995 54.25 512.527 53.7273 512.197 53.0568C511.872 52.3826 511.709 51.5985 511.709 50.7045C511.709 49.8106 511.872 49.0227 512.197 48.3409C512.527 47.6553 512.985 47.1212 513.572 46.7386C514.163 46.3523 514.853 46.1591 515.641 46.1591C516.095 46.1591 516.544 46.2348 516.987 46.3864C517.43 46.5379 517.834 46.7841 518.197 47.125C518.561 47.4621 518.851 47.9091 519.067 48.4659C519.283 49.0227 519.391 49.7083 519.391 50.5227V51.0909H512.663V49.9318H518.027C518.027 49.4394 517.929 49 517.732 48.6136C517.538 48.2273 517.262 47.9223 516.902 47.6989C516.546 47.4754 516.125 47.3636 515.641 47.3636C515.107 47.3636 514.644 47.4962 514.254 47.7614C513.868 48.0227 513.571 48.3636 513.362 48.7841C513.154 49.2045 513.05 49.6553 513.05 50.1364V50.9091C513.05 51.5682 513.163 52.1269 513.391 52.5852C513.622 53.0398 513.942 53.3864 514.351 53.625C514.76 53.8598 515.235 53.9773 515.777 53.9773C516.129 53.9773 516.447 53.928 516.732 53.8295C517.019 53.7273 517.268 53.5758 517.476 53.375C517.684 53.1705 517.845 52.9167 517.959 52.6136L519.254 52.9773C519.118 53.4167 518.889 53.803 518.567 54.1364C518.245 54.4659 517.847 54.7235 517.374 54.9091C516.9 55.0909 516.368 55.1818 515.777 55.1818ZM521.43 55V46.2727H522.726V47.5909H522.817C522.976 47.1591 523.264 46.8087 523.68 46.5398C524.097 46.2708 524.567 46.1364 525.089 46.1364C525.188 46.1364 525.311 46.1383 525.459 46.142C525.607 46.1458 525.718 46.1515 525.794 46.1591V47.5227C525.749 47.5114 525.644 47.4943 525.482 47.4716C525.322 47.4451 525.154 47.4318 524.976 47.4318C524.552 47.4318 524.173 47.5208 523.839 47.6989C523.51 47.8731 523.249 48.1155 523.055 48.4261C522.866 48.733 522.771 49.0833 522.771 49.4773V55H521.43ZM534.786 46.2727L531.558 55H530.195L526.967 46.2727H528.422L530.831 53.2273H530.922L533.331 46.2727H534.786ZM539.902 55.1818C539.061 55.1818 538.336 54.9962 537.726 54.625C537.12 54.25 536.652 53.7273 536.322 53.0568C535.997 52.3826 535.834 51.5985 535.834 50.7045C535.834 49.8106 535.997 49.0227 536.322 48.3409C536.652 47.6553 537.11 47.1212 537.697 46.7386C538.288 46.3523 538.978 46.1591 539.766 46.1591C540.22 46.1591 540.669 46.2348 541.112 46.3864C541.555 46.5379 541.959 46.7841 542.322 47.125C542.686 47.4621 542.976 47.9091 543.192 48.4659C543.408 49.0227 543.516 49.7083 543.516 50.5227V51.0909H536.788V49.9318H542.152C542.152 49.4394 542.054 49 541.857 48.6136C541.663 48.2273 541.387 47.9223 541.027 47.6989C540.671 47.4754 540.25 47.3636 539.766 47.3636C539.232 47.3636 538.769 47.4962 538.379 47.7614C537.993 48.0227 537.696 48.3636 537.487 48.7841C537.279 49.2045 537.175 49.6553 537.175 50.1364V50.9091C537.175 51.5682 537.288 52.1269 537.516 52.5852C537.747 53.0398 538.067 53.3864 538.476 53.625C538.885 53.8598 539.36 53.9773 539.902 53.9773C540.254 53.9773 540.572 53.928 540.857 53.8295C541.144 53.7273 541.393 53.5758 541.601 53.375C541.809 53.1705 541.97 52.9167 542.084 52.6136L543.379 52.9773C543.243 53.4167 543.014 53.803 542.692 54.1364C542.37 54.4659 541.972 54.7235 541.499 54.9091C541.025 55.0909 540.493 55.1818 539.902 55.1818ZM548.851 55.1818C548.124 55.1818 547.482 54.9981 546.925 54.6307C546.368 54.2595 545.932 53.7367 545.618 53.0625C545.304 52.3845 545.146 51.5833 545.146 50.6591C545.146 49.7424 545.304 48.947 545.618 48.2727C545.932 47.5985 546.37 47.0777 546.93 46.7102C547.491 46.3428 548.139 46.1591 548.874 46.1591C549.442 46.1591 549.891 46.2538 550.22 46.4432C550.554 46.6288 550.807 46.8409 550.982 47.0795C551.16 47.3144 551.298 47.5076 551.396 47.6591H551.51V43.3636H552.851V55H551.555V53.6591H551.396C551.298 53.8182 551.158 54.0189 550.976 54.2614C550.794 54.5 550.535 54.714 550.197 54.9034C549.86 55.089 549.411 55.1818 548.851 55.1818ZM549.033 53.9773C549.571 53.9773 550.025 53.8371 550.396 53.5568C550.768 53.2727 551.05 52.8807 551.243 52.3807C551.436 51.8769 551.533 51.2955 551.533 50.6364C551.533 49.9848 551.438 49.4148 551.249 48.9261C551.059 48.4337 550.779 48.0511 550.408 47.7784C550.036 47.5019 549.578 47.3636 549.033 47.3636C548.464 47.3636 547.991 47.5095 547.612 47.8011C547.237 48.089 546.955 48.4811 546.766 48.9773C546.58 49.4697 546.487 50.0227 546.487 50.6364C546.487 51.2576 546.582 51.822 546.771 52.3295C546.964 52.8333 547.249 53.2348 547.624 53.5341C548.002 53.8295 548.472 53.9773 549.033 53.9773ZM556.47 55.0909C556.19 55.0909 555.949 54.9905 555.749 54.7898C555.548 54.589 555.447 54.3485 555.447 54.0682C555.447 53.7879 555.548 53.5473 555.749 53.3466C555.949 53.1458 556.19 53.0455 556.47 53.0455C556.75 53.0455 556.991 53.1458 557.192 53.3466C557.393 53.5473 557.493 53.7879 557.493 54.0682C557.493 54.2538 557.446 54.4242 557.351 54.5795C557.26 54.7348 557.137 54.8598 556.982 54.9545C556.83 55.0455 556.66 55.0909 556.47 55.0909Z" fill="white"/>
</svg>
